<?xml version="1.0" encoding="UTF-8"?>
<svg id="Layer_1" data-name="Layer 1" xmlns="http://www.w3.org/2000/svg" xmlns:xlink="http://www.w3.org/1999/xlink" viewBox="0 0 821.2394 338.3505">
  <a xlink:href="100">
    <rect id="fullLogo" x="40" y="86.0779" width="46.0474" height="142.357"/>
  </a>
  <a xlink:href="100">
    <path id="fullLogo-2" data-name="fullLogo" d="m156.5135,86.077h-24.4188s0,212.0823,0,212.0823h24.4188c58.5648,0,106.041-47.4762,106.041-106.041v-.0002c0-58.5648-47.4762-106.041-106.041-106.041Z"/>
  </a>
  <a xlink:href="62.9776470588235">
    <rect id="fullLogo-3" data-name="fullLogo" x="86.0474" y="40" width="46.0474" height="46.0474" style="fill: #eb202f;"/>
  </a>
  <path id="fullLogo-4" data-name="fullLogo" d="m335.1994,152.9938h-12.5807v-57.4674h12.5807v57.4674Z"/>
  <path id="fullLogo-5" data-name="fullLogo" d="m345.6814,152.9938v-38.8291h11.2606l.7766,4.0386c2.4075-3.34,6.834-5.2816,11.8819-5.2816,9.2414,0,14.5998,5.9025,14.5998,16.0759v23.9963h-11.9595v-21.1231c0-4.8925-2.7181-8.0764-6.834-8.0764-4.7372,0-7.7659,3.1063-7.7659,7.9218v21.2777h-11.9595Z"/>
  <path id="fullLogo-6" data-name="fullLogo" d="m396.4665,152.9938v-28.8887h-7.3776v-9.9403h7.3776v-12.0373h11.9595v12.0373h7.3776v9.9403h-7.3776v28.8887h-11.9595Z"/>
  <path id="fullLogo-7" data-name="fullLogo" d="m418.6757,133.5023c0-12.1157,8.1543-20.5806,19.8807-20.5806,12.1925,0,19.8032,7.9995,19.8032,20.6576v3.0293l-28.1902.1554c.6989,5.1249,3.5722,7.5326,8.853,7.5326,4.5042,0,7.6883-1.6308,8.5426-4.4263h10.9498c-1.3978,8.6196-9.0861,14.1336-19.7253,14.1336-11.7266,0-20.1138-8.5426-20.1138-20.5015Zm11.6489-4.1163h16.1531c0-4.1163-3.0286-6.7564-7.8435-6.7564-4.7371,0-7.3776,2.097-8.3095,6.7564Z"/>
  <path id="fullLogo-8" data-name="fullLogo" d="m465.4234,152.9938v-38.8291h11.2606l.7766,4.0386c2.4074-3.34,6.8341-5.2816,11.8819-5.2816,9.2413,0,14.5998,5.9025,14.5998,16.0759v23.9963h-11.9595v-21.1231c0-4.8925-2.718-8.0764-6.8339-8.0764-4.7373,0-7.766,3.1063-7.766,7.9218v21.2777h-11.9595Z"/>
  <path id="fullLogo-9" data-name="fullLogo" d="m516.2085,152.9938v-28.8887h-7.3776v-9.9403h7.3776v-12.0373h11.9595v12.0373h7.3776v9.9403h-7.3776v28.8887h-11.9595Z"/>
  <path id="fullLogo-10" data-name="fullLogo" d="m539.9701,101.2735c0-3.8055,3.0288-6.7564,6.8341-6.7564,3.7276,0,6.7564,2.9509,6.7564,6.7564s-3.0288,6.8341-6.7564,6.8341c-3.8053,0-6.8341-3.0293-6.8341-6.8341Zm.932,12.8912h11.9595v38.8291h-11.9595v-38.8291Z"/>
  <path id="fullLogo-11" data-name="fullLogo" d="m581.2048,113.0001c12.3479,0,21.3563,8.2311,21.3563,20.5022s-9.0084,20.4238-21.3563,20.4238c-12.4254,0-21.4338-8.1541-21.4338-20.4238s9.0084-20.5022,21.4338-20.5022Zm0,30.2088c5.5138,0,9.3192-3.8825,9.3192-9.785,0-5.8241-3.8053-9.7073-9.3192-9.7073-5.5914,0-9.3967,3.8832-9.3967,9.7073,0,5.9025,3.8053,9.785,9.3967,9.785Z"/>
  <path id="fullLogo-12" data-name="fullLogo" d="m609.469,152.9938v-38.8291h11.2606l.7766,4.0386c2.4074-3.34,6.8341-5.2816,11.8818-5.2816,9.2415,0,14.5999,5.9025,14.5999,16.0759v23.9963h-11.9595v-21.1231c0-4.8925-2.718-8.0764-6.8339-8.0764-4.7373,0-7.766,3.1063-7.766,7.9218v21.2777h-11.9595Z"/>
  <path id="fullLogo-13" data-name="fullLogo" d="m654.8956,141.578c0-7.1448,5.0479-11.5712,14.3669-12.2697l10.8723-.8539v-.6215c0-3.8055-2.3297-5.8248-6.601-5.8248-5.0479,0-7.7659,1.9416-7.7659,5.4363h-9.9403c0-8.7757,7.2222-14.5228,18.3276-14.5228,11.2604,0,17.6285,6.2909,17.6285,17.396v22.6762h-10.5615l-.7767-5.1249c-1.2425,3.5724-6.3679,6.1349-12.1924,6.1349-8.2318,0-13.3574-4.8148-13.3574-12.4258Zm25.3168-3.1063v-2.097l-6.0573.5438c-5.2032.4662-7.067,1.6308-7.067,4.1163,0,2.7955,1.7085,4.1156,5.3585,4.1156,4.5819,0,7.7659-2.2524,7.7659-6.6787Z"/>
  <path id="fullLogo-14" data-name="fullLogo" d="m700.3231,152.9938v-58.5544h11.9595v58.5544h-11.9595Z"/>
  <path id="fullLogo-15" data-name="fullLogo" d="m721.2889,152.9938v-58.5544h11.9595v58.5544h-11.9595Z"/>
  <path id="fullLogo-16" data-name="fullLogo" d="m739.1483,161.6141h6.601c4.0382,0,5.7467-1.2424,7.2999-5.4356l.6989-1.8646-15.6094-40.1492h12.8137l8.4649,24.9286,9.3967-24.9286h12.4254l-19.7253,47.294c-3.2617,7.9218-7.6106,11.2604-14.4447,11.2604-2.8734,0-5.5914-.3878-7.9211-1.087v-10.018Z"/>
  <path id="fullLogo-17" data-name="fullLogo" d="m322.6187,230.7227v-57.4674h21.7445c16.852,0,28.5785,11.8036,28.5785,28.8887,0,16.7744-11.4159,28.5787-27.8019,28.5787h-22.5211Zm12.5807-45.8193v34.1704h8.6978c9.9403,0,15.7648-6.2902,15.7648-16.9298,0-10.8719-6.135-17.2406-16.5414-17.2406h-7.9212Z"/>
  <path id="fullLogo-18" data-name="fullLogo" d="m378.606,219.3069c0-7.1448,5.0479-11.5712,14.3669-12.2704l10.8722-.8539v-.6215c0-3.8048-2.3297-5.8248-6.601-5.8248-5.0479,0-7.7659,1.9416-7.7659,5.437h-9.9403c0-8.7757,7.2223-14.5228,18.3275-14.5228,11.2606,0,17.6286,6.2902,17.6286,17.3953v22.6769h-10.5615l-.7766-5.1256c-1.2425,3.5724-6.368,6.1356-12.1924,6.1356-8.2319,0-13.3574-4.8155-13.3574-12.4258Zm25.3168-3.1063v-2.097l-6.0574.5438c-5.2032.4662-7.067,1.6308-7.067,4.1156,0,2.7955,1.7085,4.1156,5.3585,4.1156,4.5819,0,7.7659-2.2517,7.7659-6.678Z"/>
  <path id="fullLogo-19" data-name="fullLogo" d="m450.7481,203.1533h-3.8051c-6.8341,0-10.95,3.0293-10.95,10.7173v16.8521h-11.9595v-38.7514h11.2606l.6212,5.7464c1.6308-3.8055,5.0479-6.3679,10.2509-6.3679,1.3979,0,2.9511.1554,4.5819.5431v11.2604Z"/>
  <path id="fullLogo-20" data-name="fullLogo" d="m455.8713,179.0017c0-3.8048,3.0288-6.7557,6.8341-6.7557,3.7276,0,6.7562,2.9509,6.7562,6.7557s-3.0286,6.8341-6.7562,6.8341c-3.8053,0-6.8341-3.0286-6.8341-6.8341Zm.932,12.8912h11.9595v38.8298h-11.9595v-38.8298Z"/>
  <path id="fullLogo-21" data-name="fullLogo" d="m477.769,230.7227v-38.8298h11.2606l.7766,4.0386c2.4074-3.3393,6.8339-5.2809,11.8818-5.2809,9.2415,0,14.5999,5.9025,14.5999,16.0752v23.997h-11.9595v-21.1231c0-4.8925-2.7182-8.0771-6.8341-8.0771-4.7371,0-7.7659,3.107-7.7659,7.9218v21.2784h-11.9595Z"/>
  <path id="fullLogo-22" data-name="fullLogo" d="m541.523,190.5729c5.2808,0,9.4744,2.0193,11.5712,5.2032l.6212-3.8832h11.2606v36.3444c0,13.9012-7.9988,22.2884-21.2784,22.2884-11.8819,0-19.8807-6.7564-20.968-17.7837h12.1148c.2329,4.3486,3.4946,6.9111,8.7755,6.9111,5.7467,0,9.3967-3.417,9.3967-8.9304v-5.0479c-2.3297,2.7962-6.6787,4.5824-11.7266,4.5824-10.8721,0-18.4051-7.9995-18.4051-19.6483,0-11.8036,7.6882-20.0361,18.6382-20.0361Zm2.4074,29.2779c5.4361,0,9.0861-3.8055,9.0861-9.5526,0-5.6687-3.6499-9.3188-9.1638-9.3188-5.2808,0-8.9307,3.8048-8.9307,9.3188,0,5.5917,3.7276,9.5526,9.0084,9.5526Z"/>
  <g id="tagline">
    <path id="tagline_CompoundPathItem_" data-name="tagline &amp;lt;CompoundPathItem&amp;gt;" d="m323.1926,267.1518h3.332l4.3125,14.4395c.3267,1.2417.6533,2.4829.98,4.2798.3921-1.895.7515-3.0381,1.1108-4.2798l4.4756-14.4395h3.4629l4.4429,14.4395c.3921,1.2744.7188,2.5156,1.0781,4.2798.3921-1.9927.7188-3.2017,1.0454-4.2471l4.3452-14.4722h3.2666l-7.1216,23.6196h-3.0713l-5.7168-18.6865-5.7827,18.6865h-3.1362l-7.0234-23.6196Z"/>
    <path id="tagline_CompoundPathItem_-2" data-name="tagline &amp;lt;CompoundPathItem&amp;gt;" d="m354.6555,282.8002c0-4.9985,3.1689-8.4614,7.8076-8.4614,4.541,0,7.5142,3.1362,7.5142,7.8735v1.1431l-12.3491.0327c.2285,3.3652,1.9927,5.2271,5.0312,5.2271,2.3848,0,3.9526-.98,4.4756-2.8096h2.875c-.7842,3.4302-3.4629,5.3579-7.416,5.3579-4.7046,0-7.9385-3.3975-7.9385-8.3633Zm3.0381-1.4702h9.2124c0-2.646-1.7314-4.4102-4.4429-4.4102-2.6787,0-4.3774,1.6006-4.7695,4.4102Z"/>
    <path id="tagline_CompoundPathItem_-3" data-name="tagline &amp;lt;CompoundPathItem&amp;gt;" d="m383.7658,290.7714v-13.3945h-3.1367v-2.5806h3.1367v-4.9985h3.0708v4.9985h3.1362v2.5806h-3.1362v13.3945h-3.0708Z"/>
    <path id="tagline_CompoundPathItem_-4" data-name="tagline &amp;lt;CompoundPathItem&amp;gt;" d="m391.5095,282.8002c0-4.9985,3.1689-8.4614,7.8076-8.4614,4.541,0,7.5142,3.1362,7.5142,7.8735v1.1431l-12.3491.0327c.2285,3.3652,1.9927,5.2271,5.0312,5.2271,2.3848,0,3.9526-.98,4.4756-2.8096h2.875c-.7842,3.4302-3.4634,5.3579-7.416,5.3579-4.7046,0-7.9385-3.3975-7.9385-8.3633Zm3.0381-1.4702h9.2124c0-2.646-1.7314-4.4102-4.4429-4.4102-2.6787,0-4.3774,1.6006-4.7695,4.4102Z"/>
    <path id="tagline_CompoundPathItem_-5" data-name="tagline &amp;lt;CompoundPathItem&amp;gt;" d="m410.3278,290.7714v-24.0444h3.0713v24.0444h-3.0713Z"/>
    <path id="tagline_CompoundPathItem_-6" data-name="tagline &amp;lt;CompoundPathItem&amp;gt;" d="m417.9728,290.7714v-24.0444h3.0713v24.0444h-3.0713Z"/>
    <path id="tagline_CompoundPathItem_-7" data-name="tagline &amp;lt;CompoundPathItem&amp;gt;" d="m441.0056,274.3388c2.5806,0,4.5737,1.1763,5.5864,3.1689l.2285-2.7114h2.7441v15.3218c0,5.0308-3.1035,8.2324-8.0039,8.2324-4.3447,0-7.3179-2.4502-7.9058-6.501h3.0708c.3921,2.3521,2.1562,3.7241,4.835,3.7241,3.0059,0,4.9658-1.96,4.9658-4.998v-3.2017c-1.0454,1.8618-3.1362,2.9727-5.6519,2.9727-4.541,0-7.4155-3.4956-7.4155-7.9712,0-4.5083,2.9072-8.0366,7.5464-8.0366Zm.3921,13.3291c3.1035,0,4.998-2.2217,4.998-5.3579,0-3.0708-1.8291-5.2925-4.9653-5.2925-3.0713,0-4.9004,2.3525-4.9004,5.2925,0,3.0059,1.8618,5.3579,4.8677,5.3579Z"/>
    <path id="tagline_CompoundPathItem_-8" data-name="tagline &amp;lt;CompoundPathItem&amp;gt;" d="m463.1564,277.475h-1.3721c-2.9072,0-4.7041,1.7642-4.7041,4.835v8.4614h-3.0708v-15.9424h2.8745l.1963,2.4175c.6533-1.666,2.2539-2.7769,4.4429-2.7769.5552,0,1.0127.0654,1.6333.1958v2.8096Z"/>
    <path id="tagline_CompoundPathItem_-9" data-name="tagline &amp;lt;CompoundPathItem&amp;gt;" d="m464.3996,282.8002c0-4.9985,3.1689-8.4614,7.8076-8.4614,4.541,0,7.5142,3.1362,7.5142,7.8735v1.1431l-12.3491.0327c.2285,3.3652,1.9927,5.2271,5.0312,5.2271,2.3848,0,3.9526-.98,4.4756-2.8096h2.875c-.7842,3.4302-3.4629,5.3579-7.416,5.3579-4.7046,0-7.9385-3.3975-7.9385-8.3633Zm3.0381-1.4702h9.2124c0-2.646-1.7314-4.4102-4.4429-4.4102-2.6787,0-4.3774,1.6006-4.7695,4.4102Z"/>
    <path id="tagline_CompoundPathItem_-10" data-name="tagline &amp;lt;CompoundPathItem&amp;gt;" d="m482.2057,286.3285c0-2.9404,2.189-4.77,5.9458-5.064l5.0308-.3921v-.457c0-2.6792-1.6006-3.6265-3.7568-3.6265-2.5806,0-4.0508,1.1436-4.0508,3.0708h-2.6792c0-3.332,2.7446-5.521,6.8608-5.521,3.9526,0,6.6318,2.0908,6.6318,6.4033v10.0293h-2.6138l-.3267-2.5811c-.8164,1.8296-3.0054,2.9731-5.5864,2.9731-3.4302,0-5.4556-1.9277-5.4556-4.835Zm11.0093-2.4502v-.8496l-4.0835.3267c-2.7114.2617-3.8223,1.3071-3.8223,2.875,0,1.6987,1.2412,2.5483,3.2344,2.5483,2.9072,0,4.6714-1.895,4.6714-4.9004Z"/>
    <path id="tagline_CompoundPathItem_-11" data-name="tagline &amp;lt;CompoundPathItem&amp;gt;" d="m501.6125,290.7714v-13.3945h-3.1357v-2.5806h3.1357v-4.9985h3.0713v4.9985h3.1362v2.5806h-3.1362v13.3945h-3.0713Z"/>
    <path id="tagline_CompoundPathItem_-12" data-name="tagline &amp;lt;CompoundPathItem&amp;gt;" d="m521.1174,286.1322c0,1.6338,1.2412,2.6138,3.2666,2.6138,2.1562,0,3.3975-.8823,3.3975-2.3521,0-1.0781-.5225-1.7314-2.1885-2.1562l-2.8096-.6533c-2.8423-.686-4.1816-2.0908-4.1816-4.4434,0-2.9399,2.4829-4.8022,6.0107-4.8022,3.4961,0,5.7832,1.9604,5.8486,4.9985h-2.9404c-.0654-1.6011-1.1436-2.6138-3.0059-2.6138-1.9272,0-3.0054.8496-3.0054,2.3198,0,1.0781.7842,1.7969,2.3521,2.1885l2.8096.686c2.7119.6538,4.0508,1.895,4.0508,4.2798,0,3.0381-2.6133,4.9658-6.4033,4.9658-3.7563,0-6.1416-1.9927-6.1416-5.0312h2.9404Z"/>
    <path id="tagline_CompoundPathItem_-13" data-name="tagline &amp;lt;CompoundPathItem&amp;gt;" d="m535.5588,290.7714v-13.3945h-3.1367v-2.5806h3.1367v-4.9985h3.0703v4.9985h3.1367v2.5806h-3.1367v13.3945h-3.0703Z"/>
    <path id="tagline_CompoundPathItem_-14" data-name="tagline &amp;lt;CompoundPathItem&amp;gt;" d="m551.633,274.3715c4.7695,0,8.2979,3.4629,8.2979,8.396s-3.5283,8.396-8.2979,8.396c-4.8027,0-8.3311-3.4629-8.3311-8.396s3.5283-8.396,8.3311-8.396Zm0,14.0479c3.0703,0,5.2266-2.3198,5.2266-5.6519s-2.1562-5.6519-5.2266-5.6519c-3.1035,0-5.2275,2.3198-5.2275,5.6519s2.124,5.6519,5.2275,5.6519Z"/>
    <path id="tagline_CompoundPathItem_-15" data-name="tagline &amp;lt;CompoundPathItem&amp;gt;" d="m572.4777,277.475h-1.3721c-2.9082,0-4.7051,1.7642-4.7051,4.835v8.4614h-3.0703v-15.9424h2.875l.1953,2.4175c.6533-1.666,2.2549-2.7769,4.4434-2.7769.5557,0,1.0127.0654,1.6338.1958v2.8096Z"/>
    <path id="tagline_CompoundPathItem_-16" data-name="tagline &amp;lt;CompoundPathItem&amp;gt;" d="m574.8303,268.9813c0-1.1436.9141-2.0259,2.0254-2.0259,1.1104,0,2.0254.8823,2.0254,2.0259,0,1.1104-.915,2.0254-2.0254,2.0254-1.1113,0-2.0254-.915-2.0254-2.0254Zm.5225,5.8149h3.0703v15.9751h-3.0703v-15.9751Z"/>
    <path id="tagline_CompoundPathItem_-17" data-name="tagline &amp;lt;CompoundPathItem&amp;gt;" d="m581.8215,282.8002c0-4.9985,3.1689-8.4614,7.8086-8.4614,4.541,0,7.5137,3.1362,7.5137,7.8735v1.1431l-12.3486.0327c.2285,3.3652,1.9922,5.2271,5.0303,5.2271,2.3848,0,3.9531-.98,4.4756-2.8096h2.875c-.7842,3.4302-3.4629,5.3579-7.416,5.3579-4.7041,0-7.9385-3.3975-7.9385-8.3633Zm3.0381-1.4702h9.2129c0-2.646-1.7314-4.4102-4.4424-4.4102-2.6797,0-4.3779,1.6006-4.7705,4.4102Z"/>
    <path id="tagline_CompoundPathItem_-18" data-name="tagline &amp;lt;CompoundPathItem&amp;gt;" d="m602.2082,286.1322c0,1.6338,1.2422,2.6138,3.2676,2.6138,2.1562,0,3.3975-.8823,3.3975-2.3521,0-1.0781-.5225-1.7314-2.1885-2.1562l-2.8096-.6533c-2.8428-.686-4.1816-2.0908-4.1816-4.4434,0-2.9399,2.4824-4.8022,6.0107-4.8022,3.4951,0,5.7822,1.9604,5.8477,4.9985h-2.9404c-.0654-1.6011-1.1436-2.6138-3.0049-2.6138-1.9277,0-3.0059.8496-3.0059,2.3198,0,1.0781.7842,1.7969,2.3525,2.1885l2.8096.686c2.7109.6538,4.0508,1.895,4.0508,4.2798,0,3.0381-2.6143,4.9658-6.4033,4.9658-3.7568,0-6.1416-1.9927-6.1416-5.0312h2.9395Z"/>
  </g>
</svg>